<svg width="251" height="83" viewBox="0 0 251 83" fill="none" xmlns="http://www.w3.org/2000/svg">
<path d="M50.7266 0.675495C47.9925 -0.057103 45.1822 1.56543 44.4496 4.29952L40.3943 19.4342C39.6065 22.3745 35.657 22.8945 34.135 20.2583L26.3969 6.85562C24.9817 4.4043 21.8472 3.56441 19.3959 4.97968C16.9445 6.39495 16.1047 9.52945 17.5199 11.9808L24.9648 24.8757C26.4868 27.5119 24.0618 30.6723 21.1215 29.8844L6.78763 26.0437C4.05353 25.3111 1.24322 26.9336 0.510624 29.6677C-0.221975 32.4018 1.40056 35.2121 4.13465 35.9447L19.2693 40.0001C22.2096 40.7879 22.7296 44.7374 20.0934 46.2594L6.69074 53.9974C4.23942 55.4127 3.39954 58.5472 4.81481 60.9985C6.23008 63.4498 9.36457 64.2897 11.8159 62.8744L24.7108 55.4295C27.347 53.9075 30.5074 56.3326 29.7196 59.2729L25.8788 73.6067C25.1462 76.3408 26.7688 79.1511 29.5029 79.8837C32.237 80.6163 35.0473 78.9938 35.7799 76.2597L39.6206 61.9258C40.4085 58.9856 44.358 58.4656 45.88 61.1018L53.396 74.1199C54.8113 76.5712 57.9457 77.4111 60.3971 75.9959C62.8484 74.5806 63.6883 71.4461 62.273 68.9948L54.4639 55.469C52.9419 52.8328 55.3669 49.6724 58.3072 50.4602L73.4419 54.5155C76.176 55.2481 78.9863 53.6256 79.7189 50.8915C80.4515 48.1574 78.8289 45.3471 76.0948 44.6145L61.761 40.7738C58.8207 39.9859 58.3007 36.0364 60.9369 34.5144L73.955 26.9984C76.4064 25.5831 77.2463 22.4486 75.831 19.9973C74.4157 17.546 71.2812 16.7061 68.8299 18.1214L55.3041 25.9305C52.6679 27.4525 49.5075 25.0275 50.2953 22.0872L54.3507 6.9525C55.0833 4.2184 53.4607 1.40809 50.7266 0.675495Z" fill="#1A1A1A"/>
<path d="M210.69 40.1054C208.569 40.1054 206.849 39.4457 205.53 38.1261C204.21 36.8066 203.55 34.7095 203.55 31.8348V0.21022H209.488V30.7038C209.488 32.0704 209.771 33.0601 210.336 33.6727C210.902 34.2854 211.656 34.5917 212.599 34.5917C213.023 34.5917 213.494 34.5446 214.012 34.4503C214.531 34.356 215.073 34.2147 215.638 34.0262V39.1158C214.837 39.4457 213.989 39.6813 213.093 39.8227C212.198 40.0112 211.397 40.1054 210.69 40.1054Z" fill="#1A1A1A"/>
<path d="M180.364 39.8595C177.867 39.8595 175.699 39.3647 173.861 38.375C172.023 37.3383 170.609 35.8302 169.619 33.8509C168.677 31.8716 168.206 29.4211 168.206 26.4992V4.44421H174.144V24.3786C174.144 26.6877 174.426 28.6199 174.992 30.1751C175.604 31.6831 176.5 32.8141 177.678 33.5682C178.856 34.2751 180.317 34.6285 182.061 34.6285C183.993 34.6285 185.619 34.1808 186.938 33.2854C188.305 32.3429 189.342 30.9291 190.049 29.0441C190.756 27.159 191.109 24.732 191.109 21.7631V4.44421H197.047V39.294H191.109V31.8716H192.593C191.604 34.4636 190.025 36.4429 187.857 37.8095C185.689 39.1762 183.192 39.8595 180.364 39.8595Z" fill="#1A1A1A"/>
<path d="M157.39 40.3409L156.966 33.3427V18.498C156.966 15.8118 156.212 13.7382 154.704 12.2773C153.243 10.8164 151.052 10.0859 148.13 10.0859C146.245 10.0859 144.478 10.4865 142.828 11.2877C141.179 12.0417 139.577 13.3377 138.021 15.1756L133.709 11.4997C135.642 9.23768 137.856 7.58827 140.354 6.55149C142.852 5.46759 145.585 4.92564 148.554 4.92564C153.125 4.92564 156.66 6.10379 159.157 8.4601C161.655 10.8164 162.904 14.1624 162.904 18.498V40.3409H157.39ZM145.868 40.9064C143.229 40.9064 140.92 40.4587 138.94 39.5633C137.008 38.6208 135.5 37.3249 134.416 35.6754C133.379 34.026 132.861 32.1174 132.861 29.9496C132.861 28.0174 133.238 26.3916 133.992 25.0721C134.793 23.7054 135.806 22.6451 137.032 21.891C138.257 21.0899 139.647 20.548 141.202 20.2652C142.805 19.9353 144.478 19.7704 146.221 19.7704H157.532V24.2945H147.07C146.033 24.2945 144.949 24.3887 143.818 24.5772C142.687 24.7657 141.697 25.1663 140.849 25.779C140.236 26.2502 139.742 26.8393 139.364 27.5462C139.035 28.2531 138.87 29.0778 138.87 30.0203C138.87 31.8582 139.553 33.3191 140.92 34.403C142.286 35.4869 144.124 36.0289 146.433 36.0289C148.366 36.0289 150.109 35.5812 151.664 34.6858C153.267 33.7904 154.539 32.5651 155.482 31.01C156.471 29.4077 156.966 27.6169 156.966 25.6376L159.44 28.1824C159.157 30.6801 158.403 32.895 157.178 34.8272C155.953 36.7593 154.374 38.2674 152.442 39.3513C150.557 40.3881 148.366 40.9064 145.868 40.9064Z" fill="#1A1A1A"/>
<path d="M97.5165 54.7615V5.49115H103.454V15.8825L101.546 14.5394C102.158 12.5129 103.054 10.7928 104.232 9.37906C105.457 7.91815 106.942 6.81069 108.685 6.05667C110.429 5.30265 112.408 4.92564 114.623 4.92564C117.781 4.92564 120.538 5.72678 122.894 7.32907C125.297 8.88424 127.159 11.0285 128.478 13.7618C129.798 16.448 130.458 19.5112 130.458 22.9514C130.458 26.5801 129.751 29.7611 128.337 32.4944C126.923 35.1806 125.015 37.2542 122.611 38.7151C120.208 40.176 117.545 40.9064 114.623 40.9064C112.408 40.9064 110.429 40.5059 108.685 39.7047C106.942 38.9036 105.481 37.7961 104.303 36.3823C103.124 34.9686 102.276 33.3663 101.758 31.5755L103.454 29.9496V54.7615H97.5165ZM113.634 35.4634C115.754 35.4634 117.616 34.945 119.218 33.9082C120.867 32.8243 122.14 31.3398 123.035 29.4548C123.978 27.5697 124.449 25.4019 124.449 22.9514C124.449 20.5008 123.978 18.333 123.035 16.448C122.14 14.5629 120.867 13.102 119.218 12.0652C117.616 10.9813 115.754 10.4394 113.634 10.4394C111.513 10.4394 109.651 10.9813 108.049 12.0652C106.447 13.102 105.198 14.5629 104.303 16.448C103.407 18.333 102.96 20.5008 102.96 22.9514C102.96 25.4019 103.407 27.5697 104.303 29.4548C105.198 31.3398 106.447 32.8243 108.049 33.9082C109.651 34.945 111.513 35.4634 113.634 35.4634Z" fill="#1A1A1A"/>
<path d="M237.116 82.2126C234.76 82.2126 232.639 81.8592 230.754 81.1523C228.869 80.4454 227.243 79.5029 225.876 78.3247C224.557 77.1466 223.496 75.8977 222.695 74.5782L226.866 71.0437C227.761 72.8345 229.081 74.319 230.825 75.4972C232.615 76.6282 234.736 77.1937 237.187 77.1937C239.402 77.1937 241.169 76.7224 242.488 75.7799C243.808 74.8374 244.468 73.565 244.468 71.9627C244.468 70.6432 244.067 69.6064 243.266 68.8524C242.465 68.0984 241.404 67.4857 240.085 67.0145C238.765 66.5432 237.328 66.1191 235.773 65.7421C234.453 65.4122 233.11 65.0116 231.744 64.5403C230.424 64.0691 229.222 63.48 228.138 62.7731C227.054 62.0662 226.183 61.1473 225.523 60.0162C224.863 58.8852 224.533 57.495 224.533 55.8456C224.533 52.9709 225.641 50.6617 227.856 48.918C230.118 47.1272 233.063 46.2318 236.692 46.2318C239.331 46.2318 241.734 46.7973 243.902 47.9284C246.117 49.0123 247.837 50.6617 249.062 52.8766L245.245 55.7042C244.303 54.0548 243.054 52.8766 241.499 52.1697C239.991 51.4157 238.318 51.0387 236.48 51.0387C234.642 51.0387 233.11 51.4157 231.885 52.1697C230.66 52.9237 230.047 53.9605 230.047 55.2801C230.047 56.2697 230.33 57.0708 230.895 57.6835C231.461 58.2961 232.285 58.8145 233.369 59.2386C234.5 59.6628 235.867 60.0634 237.469 60.4404C238.93 60.7703 240.415 61.1708 241.923 61.6421C243.431 62.1133 244.821 62.726 246.093 63.48C247.366 64.234 248.379 65.2472 249.133 66.5196C249.934 67.7449 250.335 69.3472 250.335 71.3265C250.335 73.4943 249.793 75.4029 248.709 77.0523C247.625 78.7017 246.093 79.9742 244.114 80.8695C242.135 81.7649 239.802 82.2126 237.116 82.2126Z" fill="#1A1A1A"/>
<path d="M213.317 79.449C210.95 80.8156 208.644 81.6297 206.401 81.891C204.175 82.088 202.057 81.8139 200.049 81.0688C198.082 80.3001 196.262 79.1742 194.589 77.6911C192.934 76.1436 191.505 74.3291 190.304 72.2477C189.102 70.1663 188.245 68.0219 187.732 65.8147C187.196 63.5666 187.055 61.3899 187.309 59.2844C187.603 57.1554 188.36 55.1675 189.579 53.3208C190.799 51.4741 192.551 49.891 194.837 48.5715C197.163 47.2284 199.398 46.4819 201.543 46.3321C203.705 46.1179 205.717 46.3982 207.579 47.1732C209.482 47.9246 211.194 49.0043 212.714 50.4121C214.234 51.8199 215.524 53.442 216.585 55.2786C216.679 55.4418 216.883 55.8413 217.195 56.4771C217.525 57.0485 217.779 57.5822 217.956 58.0782L196.224 70.6256C198.043 73.4934 200.219 75.2841 202.753 75.9976C205.288 76.7111 207.922 76.2785 210.656 74.6998C212.411 73.6866 213.777 72.5173 214.753 71.1919C215.729 69.8665 216.423 68.2413 216.836 66.3164L222.285 67.4144C221.867 69.2342 221.269 70.8852 220.493 72.3676C219.692 73.8091 218.704 75.1141 217.529 76.2825C216.394 77.4274 214.99 78.4829 213.317 79.449ZM211.478 58.3088C211.371 57.9351 211.223 57.5851 211.035 57.2586C210.887 56.9085 210.719 56.5702 210.53 56.2437C209.965 55.2642 209.216 54.3908 208.283 53.6233C207.391 52.8323 206.374 52.2494 205.233 51.8745C204.108 51.4353 202.886 51.2975 201.566 51.4612C200.263 51.5606 198.897 52.0226 197.469 52.8473C195.714 53.8605 194.439 55.1405 193.645 56.6872C192.851 58.2339 192.496 59.8809 192.58 61.6283C192.664 63.3757 193.116 65.101 193.936 66.8042L212.485 56.0947L211.478 58.3088Z" fill="#1A1A1A"/>
<path d="M176.342 81.6472V46.7974H182.28V81.6472H176.342Z" fill="#1A1A1A"/>
<path d="M150.571 81.6471V46.7973H156.58V56.1283L155.025 56.4818C155.355 54.4082 156.132 52.6174 157.358 51.1094C158.63 49.5542 160.091 48.3525 161.74 47.5042C163.437 46.656 165.086 46.2318 166.689 46.2318C167.773 46.2318 168.809 46.3497 169.799 46.5853C170.789 46.8209 171.802 47.2215 172.839 47.787L169.87 53.1594C169.304 52.8766 168.621 52.641 167.82 52.4525C167.066 52.264 166.335 52.1697 165.628 52.1697C164.497 52.1697 163.366 52.3818 162.235 52.8059C161.151 53.2301 160.162 53.8898 159.266 54.7852C158.371 55.6806 157.688 56.8823 157.216 58.3904C157.028 59.0501 156.863 59.922 156.721 61.0059C156.627 62.0426 156.58 63.48 156.58 65.3179V81.6471H150.571Z" fill="#1A1A1A"/>
<path d="M138.982 81.6471L138.557 74.6489V59.8042C138.557 57.118 137.803 55.0444 136.295 53.5835C134.834 52.1226 132.643 51.3921 129.721 51.3921C127.836 51.3921 126.069 51.7927 124.42 52.5939C122.77 53.3479 121.168 54.6438 119.613 56.4818L115.301 52.8059C117.233 50.5439 119.448 48.8945 121.945 47.8577C124.443 46.7738 127.176 46.2318 130.145 46.2318C134.717 46.2318 138.251 47.41 140.749 49.7663C143.247 52.1226 144.495 55.4686 144.495 59.8042V81.6471H138.982ZM127.459 82.2126C124.82 82.2126 122.511 81.7649 120.532 80.8695C118.6 79.927 117.091 78.6311 116.008 76.9816C114.971 75.3322 114.452 73.4236 114.452 71.2558C114.452 69.3236 114.829 67.6978 115.583 66.3783C116.385 65.0116 117.398 63.9513 118.623 63.1972C119.848 62.3961 121.239 61.8541 122.794 61.5714C124.396 61.2415 126.069 61.0766 127.813 61.0766H139.123V65.6007H128.661C127.624 65.6007 126.54 65.6949 125.409 65.8834C124.278 66.0719 123.289 66.4725 122.44 67.0852C121.828 67.5564 121.333 68.1455 120.956 68.8524C120.626 69.5593 120.461 70.384 120.461 71.3265C120.461 73.1644 121.144 74.6253 122.511 75.7092C123.878 76.7931 125.716 77.3351 128.025 77.3351C129.957 77.3351 131.701 76.8874 133.256 75.992C134.858 75.0966 136.13 73.8713 137.073 72.3162C138.063 70.7139 138.557 68.9231 138.557 66.9438L141.032 69.4886C140.749 71.9863 139.995 74.2012 138.77 76.1334C137.544 78.0655 135.966 79.5736 134.033 80.6575C132.148 81.6942 129.957 82.2126 127.459 82.2126Z" fill="#1A1A1A"/>
</svg>
