<svg width="251" height="83" viewBox="0 0 251 83" fill="none" xmlns="http://www.w3.org/2000/svg">
<path d="M50.7266 1.41935C47.9925 0.686748 45.1822 2.30928 44.4496 5.04337L40.3943 20.178C39.6065 23.1183 35.657 23.6383 34.135 21.0021L26.3969 7.59947C24.9817 5.14815 21.8472 4.30826 19.3959 5.72353C16.9445 7.1388 16.1047 10.2733 17.5199 12.7246L24.9648 25.6196C26.4868 28.2558 24.0618 31.4161 21.1215 30.6283L6.78763 26.7875C4.05353 26.0549 1.24322 27.6775 0.510624 30.4116C-0.221975 33.1457 1.40056 35.956 4.13465 36.6886L19.2693 40.7439C22.2096 41.5318 22.7296 45.4812 20.0934 47.0033L6.69074 54.7413C4.23942 56.1565 3.39954 59.291 4.81481 61.7424C6.23008 64.1937 9.36457 65.0336 11.8159 63.6183L24.7108 56.1734C27.347 54.6514 30.5074 57.0764 29.7196 60.0167L25.8788 74.3506C25.1462 77.0847 26.7688 79.895 29.5029 80.6276C32.237 81.3602 35.0473 79.7377 35.7799 77.0036L39.6206 62.6697C40.4085 59.7294 44.358 59.2094 45.88 61.8456L53.396 74.8638C54.8113 77.3151 57.9457 78.155 60.3971 76.7397C62.8484 75.3244 63.6883 72.1899 62.273 69.7386L54.4639 56.2128C52.9419 53.5766 55.3669 50.4162 58.3072 51.2041L73.4419 55.2594C76.176 55.992 78.9863 54.3695 79.7189 51.6354C80.4515 48.9013 78.8289 46.091 76.0948 45.3584L61.761 41.5176C58.8207 40.7298 58.3007 36.7803 60.9369 35.2583L73.955 27.7422C76.4064 26.327 77.2463 23.1925 75.831 20.7411C74.4157 18.2898 71.2812 17.4499 68.8299 18.8652L55.3041 26.6744C52.6679 28.1964 49.5075 25.7713 50.2953 22.831L54.3507 7.69635C55.0833 4.96225 53.4607 2.15194 50.7266 1.41935Z" fill="#F6F6F6"/>
<path d="M210.69 40.8493C208.569 40.8493 206.849 40.1895 205.53 38.87C204.21 37.5505 203.55 35.4534 203.55 32.5787V0.954071H209.488V31.4476C209.488 32.8143 209.771 33.8039 210.336 34.4166C210.902 35.0292 211.656 35.3355 212.599 35.3355C213.023 35.3355 213.494 35.2884 214.012 35.1942C214.531 35.0999 215.073 34.9585 215.638 34.77V39.8596C214.837 40.1895 213.989 40.4252 213.093 40.5665C212.198 40.755 211.397 40.8493 210.69 40.8493Z" fill="#F6F6F6"/>
<path d="M180.364 40.6033C177.867 40.6033 175.699 40.1085 173.861 39.1189C172.023 38.0821 170.609 36.5741 169.619 34.5948C168.677 32.6155 168.206 30.1649 168.206 27.2431V5.18806H174.144V25.1224C174.144 27.4316 174.426 29.3638 174.992 30.9189C175.604 32.427 176.5 33.558 177.678 34.312C178.856 35.0189 180.317 35.3724 182.061 35.3724C183.993 35.3724 185.619 34.9246 186.938 34.0293C188.305 33.0867 189.342 31.673 190.049 29.7879C190.756 27.9029 191.109 25.4759 191.109 22.5069V5.18806H197.047V40.0378H191.109V32.6155H192.593C191.604 35.2074 190.025 37.1867 187.857 38.5534C185.689 39.92 183.192 40.6033 180.364 40.6033Z" fill="#F6F6F6"/>
<path d="M157.39 41.0848L156.966 34.0866V19.2418C156.966 16.5556 156.212 14.4821 154.704 13.0212C153.243 11.5603 151.052 10.8298 148.13 10.8298C146.245 10.8298 144.478 11.2304 142.828 12.0315C141.179 12.7855 139.577 14.0815 138.021 15.9194L133.709 12.2436C135.642 9.98153 137.856 8.33212 140.354 7.29534C142.852 6.21144 145.585 5.66949 148.554 5.66949C153.125 5.66949 156.66 6.84764 159.157 9.20395C161.655 11.5603 162.904 14.9062 162.904 19.2418V41.0848H157.39ZM145.868 41.6503C143.229 41.6503 140.92 41.2026 138.94 40.3072C137.008 39.3647 135.5 38.0687 134.416 36.4193C133.379 34.7699 132.861 32.8613 132.861 30.6935C132.861 28.7613 133.238 27.1354 133.992 25.8159C134.793 24.4493 135.806 23.3889 137.032 22.6349C138.257 21.8338 139.647 21.2918 141.202 21.009C142.805 20.6792 144.478 20.5142 146.221 20.5142H157.532V25.0383H147.07C146.033 25.0383 144.949 25.1326 143.818 25.3211C142.687 25.5096 141.697 25.9102 140.849 26.5228C140.236 26.9941 139.742 27.5831 139.364 28.29C139.035 28.9969 138.87 29.8216 138.87 30.7642C138.87 32.6021 139.553 34.063 140.92 35.1469C142.286 36.2308 144.124 36.7727 146.433 36.7727C148.366 36.7727 150.109 36.325 151.664 35.4296C153.267 34.5342 154.539 33.309 155.482 31.7538C156.471 30.1515 156.966 28.3607 156.966 26.3814L159.44 28.9262C159.157 31.4239 158.403 33.6389 157.178 35.571C155.953 37.5032 154.374 39.0112 152.442 40.0951C150.557 41.1319 148.366 41.6503 145.868 41.6503Z" fill="#F6F6F6"/>
<path d="M97.5165 55.5054V6.235H103.454V16.6263L101.546 15.2832C102.158 13.2568 103.054 11.5367 104.232 10.1229C105.457 8.662 106.942 7.55454 108.685 6.80052C110.429 6.0465 112.408 5.66949 114.623 5.66949C117.781 5.66949 120.538 6.47063 122.894 8.07292C125.297 9.62809 127.159 11.7723 128.478 14.5056C129.798 17.1918 130.458 20.255 130.458 23.6952C130.458 27.324 129.751 30.505 128.337 33.2383C126.923 35.9245 125.015 37.998 122.611 39.4589C120.208 40.9198 117.545 41.6503 114.623 41.6503C112.408 41.6503 110.429 41.2497 108.685 40.4486C106.942 39.6474 105.481 38.54 104.303 37.1262C103.124 35.7124 102.276 34.1101 101.758 32.3193L103.454 30.6935V55.5054H97.5165ZM113.634 36.2072C115.754 36.2072 117.616 35.6888 119.218 34.6521C120.867 33.5682 122.14 32.0837 123.035 30.1986C123.978 28.3136 124.449 26.1458 124.449 23.6952C124.449 21.2447 123.978 19.0769 123.035 17.1918C122.14 15.3068 120.867 13.8459 119.218 12.8091C117.616 11.7252 115.754 11.1832 113.634 11.1832C111.513 11.1832 109.651 11.7252 108.049 12.8091C106.447 13.8459 105.198 15.3068 104.303 17.1918C103.407 19.0769 102.96 21.2447 102.96 23.6952C102.96 26.1458 103.407 28.3136 104.303 30.1986C105.198 32.0837 106.447 33.5682 108.049 34.6521C109.651 35.6888 111.513 36.2072 113.634 36.2072Z" fill="#F6F6F6"/>
<path d="M237.116 82.9565C234.76 82.9565 232.639 82.6031 230.754 81.8962C228.869 81.1893 227.243 80.2467 225.876 79.0686C224.557 77.8904 223.496 76.6416 222.695 75.3221L226.866 71.7876C227.761 73.5784 229.081 75.0629 230.825 76.241C232.615 77.372 234.736 77.9376 237.187 77.9376C239.402 77.9376 241.169 77.4663 242.488 76.5238C243.808 75.5813 244.468 74.3088 244.468 72.7066C244.468 71.387 244.067 70.3502 243.266 69.5962C242.465 68.8422 241.404 68.2296 240.085 67.7583C238.765 67.287 237.328 66.8629 235.773 66.4859C234.453 66.156 233.11 65.7554 231.744 65.2842C230.424 64.8129 229.222 64.2239 228.138 63.517C227.054 62.8101 226.183 61.8911 225.523 60.7601C224.863 59.6291 224.533 58.2388 224.533 56.5894C224.533 53.7147 225.641 51.4055 227.856 49.6619C230.118 47.8711 233.063 46.9757 236.692 46.9757C239.331 46.9757 241.734 47.5412 243.902 48.6722C246.117 49.7561 247.837 51.4055 249.062 53.6205L245.245 56.448C244.303 54.7986 243.054 53.6205 241.499 52.9136C239.991 52.1596 238.318 51.7826 236.48 51.7826C234.642 51.7826 233.11 52.1596 231.885 52.9136C230.66 53.6676 230.047 54.7044 230.047 56.0239C230.047 57.0136 230.33 57.8147 230.895 58.4273C231.461 59.04 232.285 59.5584 233.369 59.9825C234.5 60.4066 235.867 60.8072 237.469 61.1842C238.93 61.5141 240.415 61.9147 241.923 62.3859C243.431 62.8572 244.821 63.4698 246.093 64.2239C247.366 64.9779 248.379 65.9911 249.133 67.2635C249.934 68.4888 250.335 70.0911 250.335 72.0704C250.335 74.2382 249.793 76.1468 248.709 77.7962C247.625 79.4456 246.093 80.718 244.114 81.6134C242.135 82.5088 239.802 82.9565 237.116 82.9565Z" fill="#F6F6F6"/>
<path d="M213.317 80.1928C210.95 81.5595 208.644 82.3735 206.401 82.6348C204.175 82.8318 202.057 82.5577 200.049 81.8126C198.082 81.044 196.262 79.9181 194.589 78.435C192.934 76.8875 191.505 75.073 190.304 72.9916C189.102 70.9101 188.245 68.7658 187.732 66.5585C187.196 64.3105 187.055 62.1337 187.309 60.0283C187.603 57.8992 188.36 55.9114 189.579 54.0647C190.799 52.218 192.551 50.6348 194.837 49.3153C197.163 47.9722 199.398 47.2257 201.543 47.0759C203.705 46.8617 205.717 47.1421 207.579 47.9171C209.482 48.6685 211.194 49.7481 212.714 51.1559C214.234 52.5637 215.524 54.1859 216.585 56.0224C216.679 56.1857 216.883 56.5852 217.195 57.2209C217.525 57.7923 217.779 58.326 217.956 58.8221L196.224 71.3694C198.043 74.2372 200.219 76.0279 202.753 76.7415C205.288 77.455 207.922 77.0224 210.656 75.4437C212.411 74.4305 213.777 73.2612 214.753 71.9358C215.729 70.6104 216.423 68.9852 216.836 67.0602L222.285 68.1583C221.867 69.978 221.269 71.6291 220.493 73.1114C219.692 74.5529 218.704 75.8579 217.529 77.0264C216.394 78.1713 214.99 79.2268 213.317 80.1928ZM211.478 59.0526C211.371 58.679 211.223 58.3289 211.035 58.0024C210.887 57.6524 210.719 57.3141 210.53 56.9876C209.965 56.0081 209.216 55.1346 208.283 54.3672C207.391 53.5762 206.374 52.9933 205.233 52.6184C204.108 52.1792 202.886 52.0414 201.566 52.2051C200.263 52.3044 198.897 52.7664 197.469 53.5912C195.714 54.6044 194.439 55.8843 193.645 57.431C192.851 58.9777 192.496 60.6248 192.58 62.3722C192.664 64.1195 193.116 65.8448 193.936 67.548L212.485 56.8386L211.478 59.0526Z" fill="#F6F6F6"/>
<path d="M176.342 82.391V47.5412H182.28V82.391H176.342Z" fill="#F6F6F6"/>
<path d="M150.571 82.391V47.5412H156.58V56.8722L155.025 57.2256C155.355 55.1521 156.132 53.3613 157.358 51.8532C158.63 50.2981 160.091 49.0964 161.74 48.2481C163.437 47.3998 165.086 46.9757 166.689 46.9757C167.773 46.9757 168.809 47.0935 169.799 47.3291C170.789 47.5648 171.802 47.9653 172.839 48.5308L169.87 53.9032C169.304 53.6205 168.621 53.3848 167.82 53.1963C167.066 53.0078 166.335 52.9136 165.628 52.9136C164.497 52.9136 163.366 53.1256 162.235 53.5498C161.151 53.9739 160.162 54.6337 159.266 55.5291C158.371 56.4245 157.688 57.6262 157.216 59.1342C157.028 59.794 156.863 60.6658 156.721 61.7497C156.627 62.7865 156.58 64.2238 156.58 66.0618V82.391H150.571Z" fill="#F6F6F6"/>
<path d="M138.982 82.391L138.557 75.3928V60.548C138.557 57.8618 137.803 55.7883 136.295 54.3274C134.834 52.8665 132.643 52.136 129.721 52.136C127.836 52.136 126.069 52.5366 124.42 53.3377C122.77 54.0917 121.168 55.3877 119.613 57.2256L115.301 53.5498C117.233 51.2877 119.448 49.6383 121.945 48.6015C124.443 47.5176 127.176 46.9757 130.145 46.9757C134.717 46.9757 138.251 48.1538 140.749 50.5101C143.247 52.8665 144.495 56.2124 144.495 60.548V82.391H138.982ZM127.459 82.9565C124.82 82.9565 122.511 82.5088 120.532 81.6134C118.6 80.6709 117.091 79.3749 116.008 77.7255C114.971 76.0761 114.452 74.1675 114.452 71.9997C114.452 70.0675 114.829 68.4416 115.583 67.1221C116.385 65.7554 117.398 64.6951 118.623 63.9411C119.848 63.14 121.239 62.598 122.794 62.3152C124.396 61.9854 126.069 61.8204 127.813 61.8204H139.123V66.3445H128.661C127.624 66.3445 126.54 66.4388 125.409 66.6273C124.278 66.8158 123.289 67.2164 122.44 67.829C121.828 68.3003 121.333 68.8893 120.956 69.5962C120.626 70.3031 120.461 71.1278 120.461 72.0704C120.461 73.9083 121.144 75.3692 122.511 76.4531C123.878 77.537 125.716 78.0789 128.025 78.0789C129.957 78.0789 131.701 77.6312 133.256 76.7358C134.858 75.8404 136.13 74.6152 137.073 73.06C138.063 71.4577 138.557 69.6669 138.557 67.6876L141.032 70.2324C140.749 72.7301 139.995 74.945 138.77 76.8772C137.544 78.8094 135.966 80.3174 134.033 81.4013C132.148 82.4381 129.957 82.9565 127.459 82.9565Z" fill="#F6F6F6"/>
</svg>
